<svg width="13" height="13" viewBox="8.5 6.5 13 13" fill="none" xmlns="http://www.w3.org/2000/svg">

<g id="onboarding icon right">

<path id="&#234;&#178;&#128;&#236;&#131;&#137;" d="M35.8359 8.08203C35.8359 8.98828 35.6445 9.80469 35.2617 10.5312C34.8789 11.2578 34.3203 11.8789 33.5859 12.3945C32.8555 12.9062 31.9727 13.3047 30.9375 13.5898L30.4219 12.5703C31.6055 12.2461 32.5391 11.7891 33.2227 11.1992C33.9062 10.6055 34.3047 9.91797 34.418 9.13672H30.9961V8.08203H35.8359ZM39.2227 13.4141H37.8984V11.1055H35.8711V10.0391H37.8984V7.46094H39.2227V13.4141ZM39.2227 17.9023H32.2383V13.8477H39.2227V17.9023ZM33.5391 16.8594H37.9219V14.8906H33.5391V16.8594ZM44.0273 9.35938C44.0273 9.76172 44.1016 10.1504 44.25 10.5254C44.4023 10.9004 44.6328 11.2402 44.9414 11.5449C45.25 11.8496 45.6289 12.0938 46.0781 12.2773L45.3867 13.2852C44.9297 13.0977 44.5352 12.8398 44.2031 12.5117C43.8711 12.1836 43.6074 11.8027 43.4121 11.3691C43.209 11.8613 42.9316 12.2988 42.5801 12.6816C42.2324 13.0605 41.8164 13.3555 41.332 13.5664L40.6289 12.5352C41.0938 12.332 41.4844 12.0605 41.8008 11.7207C42.1211 11.377 42.3594 11.002 42.5156 10.5957C42.6758 10.1855 42.7578 9.77344 42.7617 9.35938V8.07031H44.0273V9.35938ZM49.7812 13.8594H48.5273V11.1641H47.4961V13.8125H46.2539V7.625H47.4961V10.0977H48.5273V7.46094H49.7812V13.8594ZM49.7812 18.0312H48.4688V15.4297H42.5039V14.375H49.7812V18.0312Z" fill="#647087"/>
<g id="Group 1">
<path id="Ellipse 541" d="M88 3.65039C93.1957 3.65039 97.3496 7.64329 97.3496 12.5C97.3496 14.1001 97.2579 15.0959 97.1475 15.7881C97.0323 16.5099 96.9115 16.8523 96.8018 17.3643C96.6155 18.2338 96.6132 19.0832 97.0693 21.2881C96.2933 20.9125 95.6657 20.6674 95.123 20.5273C94.2857 20.3113 93.6631 20.3454 93.0391 20.4922C91.8749 20.7661 90.8994 21.3496 88 21.3496C82.8043 21.3496 78.6504 17.3567 78.6504 12.5C78.6504 7.64329 82.8043 3.65039 88 3.65039Z" stroke="#757D89" stroke-width="1.3"/>
<line id="Line 58" x1="84.85" y1="9.85" x2="84.85" y2="12.15" stroke="#757D8A" stroke-width="1.7" stroke-linecap="round"/>
<path id="Line 60" d="M91 16C91 16 90 17 88 17C86 17 85 16 85 16" stroke="#757D8A" stroke-linecap="square"/>
<line id="Line 59" x1="91.35" y1="9.85" x2="91.35" y2="12.15" stroke="#757D8A" stroke-width="1.7" stroke-linecap="round"/>
</g>
<line id="Line 61" x1="119" y1="5.15" x2="137" y2="5.15" stroke="#757D89" stroke-width="1.7"/>
<path id="Line 62" d="M119 13.1499H126" stroke="#757D89" stroke-width="1.7"/>
<line id="Line 63" x1="119" y1="20.15" x2="125" y2="20.15" stroke="#757D89" stroke-width="1.7"/>
<path id="Line 64" d="M138 21L134.601 17.3989" stroke="#757D89" stroke-width="1.7"/>
<path id="Line 65" d="M21 19L17.8626 15.676" stroke="#647087" stroke-width="1.56923"/>
<circle id="Ellipse 542" cx="131" cy="14" r="5.25" stroke="#757D89" stroke-width="1.5"/>
<circle id="Ellipse 543" cx="14.5385" cy="12.5385" r="4.84617" stroke="#647087" stroke-width="1.38462"/>
</g>
</svg>