<svg width="38" height="38" viewBox="0 0 38 38" fill="none" xmlns="http://www.w3.org/2000/svg">

<g id="iphone-main-ai-repoet">

<g id="Lable_light">
<path id="Rectangle 49" d="M29.1216 23.1755C29.946 22.3511 30.3582 21.9389 30.3582 21.4267C30.3582 20.9145 29.946 20.5023 29.1216 19.6779L20.6638 11.2201C20.2083 10.7646 19.9805 10.5368 19.6855 10.4467C19.3905 10.3566 19.0744 10.4182 18.4421 10.5414L13.4657 11.5108C12.6732 11.6652 12.2769 11.7424 12.0098 12.0095C11.7427 12.2767 11.6655 12.6729 11.5111 13.4654L10.5417 18.4418C10.4185 19.0741 10.3569 19.3903 10.447 19.6853C10.5371 19.9802 10.7649 20.208 11.2204 20.6635L19.6782 29.1213C20.5026 29.9457 20.9148 30.3579 21.427 30.3579C21.9392 30.3579 22.3514 29.9457 23.1758 29.1213L29.1216 23.1755Z" stroke="#0046FF" stroke-width="1.5"/>
<ellipse id="Ellipse 48" cx="1.125" cy="1.11292" rx="1.125" ry="1.11292" transform="matrix(-0.707107 -0.707107 -0.707107 0.707107 18.1853 16.6115)" fill="#0046FF" stroke="#0046FF" stroke-width="1.23657"/>
</g>
</g>
</svg>
